<?xml version="1.0" encoding="UTF-8" standalone="no"?>
<!-- Created with Inkscape (http://www.inkscape.org/) -->

<svg
   width="200"
   height="200"
   viewBox="0 0 52.916663 52.916668"
   version="1.1"
   id="svg5"
   xml:space="preserve"
   inkscape:version="1.2.2 (732a01da63, 2022-12-09)"
   sodipodi:docname="icon.svg"
   xmlns:inkscape="http://www.inkscape.org/namespaces/inkscape"
   xmlns:sodipodi="http://sodipodi.sourceforge.net/DTD/sodipodi-0.dtd"
   xmlns="http://www.w3.org/2000/svg"
   xmlns:svg="http://www.w3.org/2000/svg"><sodipodi:namedview
     id="namedview7"
     pagecolor="#ffffff"
     bordercolor="#000000"
     borderopacity="0.25"
     inkscape:showpageshadow="2"
     inkscape:pageopacity="0.0"
     inkscape:pagecheckerboard="0"
     inkscape:deskcolor="#d1d1d1"
     inkscape:document-units="mm"
     showgrid="false"
     inkscape:zoom="1.0456808"
     inkscape:cx="318.93098"
     inkscape:cy="325.62519"
     inkscape:window-width="1920"
     inkscape:window-height="991"
     inkscape:window-x="-9"
     inkscape:window-y="-9"
     inkscape:window-maximized="1"
     inkscape:current-layer="svg5" /><defs
     id="defs2"><inkscape:perspective
       sodipodi:type="inkscape:persp3d"
       inkscape:vp_x="35.929541 : -163.09782 : 1"
       inkscape:vp_y="0 : 189.71511 : 0"
       inkscape:vp_z="245.92953 : -163.09782 : 1"
       inkscape:persp3d-origin="140.92953 : -172.48872 : 1"
       id="perspective240" /></defs><path
     id="rect1988"
     style="fill:#d13630;fill-rule:evenodd;stroke:none;stroke-width:0.0899796;stroke-linecap:round;stroke-linejoin:round"
     d="M 53.002001,0.08533525 H 0.08533478 V 53.001991 H 53.002001 Z" /><g
     inkscape:groupmode="layer"
     id="layer1"
     inkscape:label="Layer 1"
     transform="matrix(0.52721069,0,-0.12330527,0.52721069,6.4682193,0.04034559)"><g
       style="fill:#ffffff;fill-opacity:1;stroke:none"
       id="g4454"
       transform="matrix(-0.30356336,0,0,0.30356336,213.84206,-63.07296)"><polygon
         points="597.959,245.506 658.913,245.506 400.111,73.09 141.31,245.506 202.262,245.506 394.047,117.16 406.176,117.16 "
         id="polygon4430"
         style="fill:#ffffff;fill-opacity:1;stroke:none"
         transform="matrix(0.37726494,0,0,0.37726494,387.88912,209.37403)" /><path
         id="path4428"
         style="fill:#ffffff;fill-opacity:1;stroke:none;stroke-width:0.377265"
         inkscape:label="path4428"
         d="m 538.83717,261.93482 -70.05589,46.88721 v 137.89705 c 6.15709,-3.69559 13.33149,-5.86111 21.02034,-5.86111 11.06116,0 21.09629,4.41935 28.48165,11.56221 v -26.36395 h 41.10951 v 24.53565 c 7.36789,-7.03856 17.32144,-11.39198 28.29098,-11.39198 7.76713,0 15.01108,2.20973 21.2093,5.97517 V 308.82203 Z m -49.33175,57.23566 h 24.66673 v 24.66673 h -24.66673 z m 36.99839,0 h 24.66673 v 24.66673 h -24.66673 z m 37.00009,0 h 24.66503 v 24.66673 H 563.5039 Z m -73.99848,36.99839 h 24.66673 v 24.66502 h -24.66673 z m 36.99839,0.002 h 24.66673 v 24.66332 h -24.66673 z m 37.00009,0 h 24.66503 v 24.66332 H 563.5039 Z m -73.99848,36.99669 h 24.66673 v 24.66673 h -24.66673 z m 36.99839,0 h 24.66673 v 24.66673 h -24.66673 z m 37.00009,0 h 24.66503 v 24.66673 H 563.5039 Z m -73.70228,59.57636 c -8.26958,0 13.99301,0 0,0 z"
         sodipodi:nodetypes="cccsccccsccccccccccccccccccccccccccccccccccccccccccccccccss" /></g><g
       style="fill:#ffffff;fill-opacity:1;stroke:none;stroke-width:5.11018;stroke-dasharray:none;stroke-opacity:1"
       id="g1934"
       transform="matrix(0.09394596,0,0,0.09394596,23.429391,71.25135)"><path
         d="M 127.267,0 C 57.092,0 0,57.091 0,127.266 c 0,70.175 57.092,127.266 127.267,127.266 70.174,0 127.266,-57.091 127.266,-127.266 C 254.533,57.091 197.44,0 127.267,0 Z m 0,217.656 c -49.922,0 -90.391,-40.468 -90.391,-90.39 0,-49.922 40.469,-90.39 90.391,-90.39 49.92,0 90.39,40.468 90.39,90.39 0,49.922 -40.471,90.39 -90.39,90.39 z"
         id="path1920"
         style="fill:#ffffff;fill-opacity:1;stroke:none;stroke-width:5.11018;stroke-dasharray:none;stroke-opacity:1"
         transform="translate(1.2775438e-5,3.2577368e-5)" /><path
         d="m 127.267,48.578 c -43.39,0 -78.689,35.299 -78.689,78.688 0,43.389 35.3,78.688 78.689,78.688 43.389,0 78.688,-35.299 78.688,-78.688 0,-43.389 -35.3,-78.688 -78.688,-78.688 z m 68.611,73.671 h -38.18 c -0.78,-4.825 -2.686,-9.275 -5.435,-13.079 l 26.954,-26.954 c 9.462,10.896 15.554,24.78 16.661,40.033 z M 132.204,58.648 c 15.244,1.087 29.123,7.156 40.025,16.591 l -26.948,26.949 c -3.804,-2.748 -8.253,-4.653 -13.077,-5.433 z m -9.875,0 v 38.106 c -4.824,0.78 -9.274,2.685 -13.078,5.434 L 82.302,75.24 c 10.902,-9.435 24.783,-15.505 40.027,-16.592 z m -47.016,23.569 26.955,26.954 c -2.749,3.803 -4.654,8.253 -5.434,13.077 h -38.18 c 1.107,-15.252 7.199,-29.135 16.659,-40.031 z m -16.67,49.906 h 38.192 c 0.779,4.824 2.685,9.274 5.434,13.078 L 75.24,172.23 C 65.788,161.308 59.714,147.398 58.643,132.123 Z m 63.686,63.761 c -15.285,-1.09 -29.197,-7.188 -40.113,-16.666 l 27.035,-27.035 c 3.804,2.749 8.254,4.654 13.078,5.434 z m 0,-48.425 v 0.072 c -2.131,-0.518 -4.131,-1.36 -5.953,-2.474 l 0.047,-0.047 c -2.85,-1.738 -5.244,-4.132 -6.982,-6.983 l -0.046,0.046 c -1.114,-1.822 -1.956,-3.821 -2.474,-5.952 h 0.071 c -0.385,-1.585 -0.611,-3.233 -0.611,-4.937 0,-1.704 0.227,-3.352 0.611,-4.937 h -0.071 c 0.518,-2.13 1.359,-4.129 2.474,-5.951 l 0.046,0.046 c 1.738,-2.85 4.133,-5.245 6.982,-6.982 l -0.047,-0.047 c 1.822,-1.114 3.822,-1.957 5.953,-2.474 v 0.072 c 1.586,-0.385 3.233,-0.612 4.938,-0.612 1.705,0 3.352,0.227 4.938,0.612 v -0.072 c 2.131,0.518 4.13,1.359 5.951,2.473 l -0.047,0.047 c 2.851,1.737 5.245,4.132 6.983,6.982 l 0.046,-0.046 c 1.115,1.822 1.957,3.822 2.475,5.953 h -0.071 c 0.385,1.585 0.611,3.233 0.611,4.937 0,1.704 -0.227,3.352 -0.611,4.937 h 0.071 c -0.518,2.131 -1.359,4.131 -2.475,5.953 l -0.046,-0.046 c -1.738,2.85 -4.133,5.244 -6.983,6.982 l 0.047,0.046 c -1.821,1.114 -3.82,1.956 -5.951,2.474 v -0.072 c -1.586,0.385 -3.233,0.612 -4.938,0.612 -1.705,0 -3.352,-0.226 -4.938,-0.612 z m 9.875,48.425 v -38.267 c 4.824,-0.78 9.273,-2.685 13.077,-5.433 l 27.034,27.034 c -10.915,9.478 -24.827,15.576 -40.111,16.666 z m 47.088,-23.654 -27.028,-27.028 c 2.749,-3.804 4.654,-8.254 5.435,-13.079 h 38.191 c -1.072,15.275 -7.145,29.185 -16.598,40.107 z"
         id="path1922"
         style="fill:#ffffff;fill-opacity:1;stroke:none;stroke-width:5.11018;stroke-dasharray:none;stroke-opacity:1"
         transform="translate(1.2775438e-5,3.2577368e-5)" /></g><g
       style="fill:#ffffff;fill-opacity:1;stroke:none;stroke-width:5.11018;stroke-dasharray:none;stroke-opacity:1"
       id="g4654"
       transform="matrix(-0.09199694,0,0,0.09199694,76.864236,71.499394)"><path
         d="M 127.267,0 C 57.092,0 0,57.091 0,127.266 c 0,70.175 57.092,127.266 127.267,127.266 70.174,0 127.266,-57.091 127.266,-127.266 C 254.533,57.091 197.44,0 127.267,0 Z m 0,217.656 c -49.922,0 -90.391,-40.468 -90.391,-90.39 0,-49.922 40.469,-90.39 90.391,-90.39 49.92,0 90.39,40.468 90.39,90.39 0,49.922 -40.471,90.39 -90.39,90.39 z"
         id="path4650"
         style="fill:#ffffff;fill-opacity:1;stroke:none;stroke-width:5.11018;stroke-dasharray:none;stroke-opacity:1"
         transform="translate(1.2775438e-5,3.2577368e-5)" /><path
         d="m 127.267,48.578 c -43.39,0 -78.689,35.299 -78.689,78.688 0,43.389 35.3,78.688 78.689,78.688 43.389,0 78.688,-35.299 78.688,-78.688 0,-43.389 -35.3,-78.688 -78.688,-78.688 z m 68.611,73.671 h -38.18 c -0.78,-4.825 -2.686,-9.275 -5.435,-13.079 l 26.954,-26.954 c 9.462,10.896 15.554,24.78 16.661,40.033 z M 132.204,58.648 c 15.244,1.087 29.123,7.156 40.025,16.591 l -26.948,26.949 c -3.804,-2.748 -8.253,-4.653 -13.077,-5.433 z m -9.875,0 v 38.106 c -4.824,0.78 -9.274,2.685 -13.078,5.434 L 82.302,75.24 c 10.902,-9.435 24.783,-15.505 40.027,-16.592 z m -47.016,23.569 26.955,26.954 c -2.749,3.803 -4.654,8.253 -5.434,13.077 h -38.18 c 1.107,-15.252 7.199,-29.135 16.659,-40.031 z m -16.67,49.906 h 38.192 c 0.779,4.824 2.685,9.274 5.434,13.078 L 75.24,172.23 C 65.788,161.308 59.714,147.398 58.643,132.123 Z m 63.686,63.761 c -15.285,-1.09 -29.197,-7.188 -40.113,-16.666 l 27.035,-27.035 c 3.804,2.749 8.254,4.654 13.078,5.434 z m 0,-48.425 v 0.072 c -2.131,-0.518 -4.131,-1.36 -5.953,-2.474 l 0.047,-0.047 c -2.85,-1.738 -5.244,-4.132 -6.982,-6.983 l -0.046,0.046 c -1.114,-1.822 -1.956,-3.821 -2.474,-5.952 h 0.071 c -0.385,-1.585 -0.611,-3.233 -0.611,-4.937 0,-1.704 0.227,-3.352 0.611,-4.937 h -0.071 c 0.518,-2.13 1.359,-4.129 2.474,-5.951 l 0.046,0.046 c 1.738,-2.85 4.133,-5.245 6.982,-6.982 l -0.047,-0.047 c 1.822,-1.114 3.822,-1.957 5.953,-2.474 v 0.072 c 1.586,-0.385 3.233,-0.612 4.938,-0.612 1.705,0 3.352,0.227 4.938,0.612 v -0.072 c 2.131,0.518 4.13,1.359 5.951,2.473 l -0.047,0.047 c 2.851,1.737 5.245,4.132 6.983,6.982 l 0.046,-0.046 c 1.115,1.822 1.957,3.822 2.475,5.953 h -0.071 c 0.385,1.585 0.611,3.233 0.611,4.937 0,1.704 -0.227,3.352 -0.611,4.937 h 0.071 c -0.518,2.131 -1.359,4.131 -2.475,5.953 l -0.046,-0.046 c -1.738,2.85 -4.133,5.244 -6.983,6.982 l 0.047,0.046 c -1.821,1.114 -3.82,1.956 -5.951,2.474 v -0.072 c -1.586,0.385 -3.233,0.612 -4.938,0.612 -1.705,0 -3.352,-0.226 -4.938,-0.612 z m 9.875,48.425 v -38.267 c 4.824,-0.78 9.273,-2.685 13.077,-5.433 l 27.034,27.034 c -10.915,9.478 -24.827,15.576 -40.111,16.666 z m 47.088,-23.654 -27.028,-27.028 c 2.749,-3.804 4.654,-8.254 5.435,-13.079 h 38.191 c -1.072,15.275 -7.145,29.185 -16.598,40.107 z"
         id="path4652"
         style="fill:#ffffff;fill-opacity:1;stroke:none;stroke-width:5.11018;stroke-dasharray:none;stroke-opacity:1"
         transform="translate(1.2775438e-5,3.2577368e-5)" /></g></g></svg>
